<?xml version="1.0" standalone="no"?>
<!DOCTYPE svg PUBLIC "-//W3C//DTD SVG 1.1//EN" "http://www.w3.org/Graphics/SVG/1.1/DTD/svg11.dtd" >
<svg xmlns="http://www.w3.org/2000/svg">
<metadata>Generated by IcoMoon</metadata>
<defs>
<font id="dreambox" horiz-adv-x="1024">
<font-face units-per-em="1024" ascent="960" descent="-64" />
<missing-glyph horiz-adv-x="1024" />
<glyph unicode="&#x20;" horiz-adv-x="512" d="" />
<glyph unicode="&#x30;" glyph-name="zoom" d="M387.568 184.865c-214.048 0-387.568 173.52-387.568 387.568s173.52 387.568 387.568 387.568c214.048 0 387.568-173.52 387.568-387.568v0c-0.207-213.965-173.604-387.361-387.548-387.568h-0.019zM387.568 895.284c-0.054 0-0.118 0-0.182 0-178.407 0-323.034-144.627-323.034-323.034s144.627-323.034 323.034-323.034c178.407 0 323.034 144.627 323.034 323.034 0 0.064 0 0.128 0 0.192v-0.010c-0.206 178.259-144.607 322.723-322.822 323.034h-0.030zM623.164 291.403l45.632 45.632 355.29-355.29-45.632-45.632-355.29 355.29zM355.21 766.216h64.534v-387.568h-64.534v387.568zM193.784 604.79h387.568v-64.534h-387.568v64.534z" />
<glyph unicode="&#x31;" glyph-name="arrow_back" horiz-adv-x="1309" d="M1309.057 526.902h-1007.306l338.604 326.949-109.928 106.148-530.426-511.843 530.426-512.157 109.928 106.463-338.604 326.634h1007.306v157.805z" />
<glyph unicode="&#x32;" glyph-name="back" horiz-adv-x="1245" d="M0 9.115v-73.115h73.115v1024h-73.115v-950.885zM1244.724 497.269h-630.245l211.855 204.564-68.779 66.414-331.874-320.246 331.874-320.246 68.779 66.414-211.855 204.564h630.245v98.537z" />
<glyph unicode="&#x33;" glyph-name="back_dotted" horiz-adv-x="1162" d="M0 960h68.242v-68.242h-68.242v68.242zM0 823.516h68.242v-68.242h-68.242v68.242zM0 687.031h68.242v-68.242h-68.242v68.242zM0 550.363h68.242v-68.242h-68.242v68.242zM0 413.879h68.242v-68.242h-68.242v68.242zM0 277.395h68.242v-68.242h-68.242v68.242zM0 140.91h68.242v-68.242h-68.242v68.242zM0 4.242h68.242v-68.242h-68.242v68.242zM1161.772 528.106h-588.244l197.737 190.931-64.195 61.988-309.757-298.904 309.757-298.904 64.195 61.988-197.737 190.931h588.244v91.971z" />
<glyph unicode="&#x34;" glyph-name="stop" d="M512.079 960c-0.047 0-0.103 0-0.158 0-282.813 0-512.079-229.266-512.079-512.079s229.266-512.079 512.079-512.079c282.813 0 512.079 229.266 512.079 512.079v0c-0.27 282.649-229.284 511.719-511.886 512.079h-0.034zM512.079 0.069c-0.047 0-0.103 0-0.158 0-247.429 0-448.010 200.581-448.010 448.010s200.581 448.010 448.010 448.010c247.429 0 448.010-200.581 448.010-448.010 0-0.056 0-0.112 0-0.167v0.009c-0.36-247.197-200.655-447.492-447.817-447.852h-0.035zM681.348 662.592l-169.269-169.269-169.427 169.269-45.244-45.244 169.269-169.427-169.269-169.269 45.244-45.244 169.427 169.269 169.269-169.269 45.244 45.244-169.269 169.269 169.269 169.427-45.244 45.244z" />
<glyph unicode="&#x35;" glyph-name="wait" horiz-adv-x="768" d="M703.945 896.018h64.425v63.982h-768.369v-63.982h63.982v-63.982h30.439c-12.159-31.875-19.2-68.738-19.2-107.246 0-99.291 46.813-187.648 119.572-244.205l0.698-0.522c15.384-11.649 32.782-22.329 51.19-31.253l1.857-0.812c-103.873-49.941-174.3-154.342-174.3-275.192 0-39.191 7.407-76.653 20.896-111.061l-0.714 2.068h-30.439v-64.277h-63.982v-63.538h768.369v63.538h-64.425v64.425h-30.439c12.815 32.377 20.244 69.884 20.244 109.127 0 120.791-70.392 225.141-172.392 274.267l-1.822 0.791c20.263 9.722 37.662 20.403 53.826 32.629l-0.779-0.565c73.351 57.11 120.084 145.425 120.084 244.656 0 38.478-7.027 75.315-19.868 109.297l0.706-2.128h30.439zM610.41 819.625c12.226-28.041 19.339-60.711 19.339-95.042 0-112.524-76.413-207.2-180.179-234.969l-1.7-0.387v-82.6c32.734-8.684 61.321-22.978 86.141-41.951l-0.586 0.43c58.475-45.342 95.749-115.607 95.749-194.579 0-33.973-6.898-66.335-19.371-95.761l0.606 1.61-5.172-12.412h-65.016c2.21 9.924 3.476 21.323 3.476 33.017 0 76.664-54.412 140.62-126.725 155.355l-1.020 0.174v262.132c74.447 10.815 135.68 58.672 165.099 123.954l0.544 1.349h-395.119c29.846-66.665 91.062-114.552 164.347-125.167l1.148-0.136v-262.132c-73.263-14.965-127.603-78.887-127.603-155.501 0-11.704 1.268-23.113 3.675-34.095l-0.193 1.049h-65.311l-5.172 12.412c-12.191 28.015-19.284 60.651-19.284 94.943 0 112.532 76.378 207.225 180.122 235.067l1.702 0.389v82.6c-105.466 28.156-181.878 122.833-181.878 235.356 0 34.331 7.113 67.001 19.946 96.616l-0.607-1.574 5.172 12.264h443.29z" />
<glyph unicode="&#x36;" glyph-name="heart_crack_4" horiz-adv-x="3149" d="M1557.49 6.33l-168.613 240.446-295.448 53.199-106.397 291.842-395.534 37.57-154.186 330.613c-10.82 0-21.64-2.404-32.46-3.607-96.364-23.852-179.258-72.016-244.639-137.64l-0.015-0.015c-205.281-205.281-214.298-526.878-20.438-721.338 265.693-265.693 1359.422-123.529 1432.758-113.611zM1573.119-15.61c102.19-13.525 1174.88-150.279 1436.666 110.004 193.86 193.86 184.542 515.456-20.738 721.338-68.85 68.84-157.017 118.363-255.672 139.741l-3.409 0.619-320.094-125.633-68.828-407.556-349.248-60.112-79.948-261.485-320.996-105.195z" />
<glyph unicode="&#x61;" glyph-name="arrow_bold" horiz-adv-x="1868" d="M933.807 960l-933.807-1024h1868.003l-934.196 1024z" />
<glyph unicode="&#x62;" glyph-name="arrow_thin" horiz-adv-x="527" d="M14.929-64l-14.929 15.102 496.985 496.985-496.985 496.985 14.929 14.929 512.087-511.913-512.087-512.087z" />
<glyph unicode="&#x63;" glyph-name="arrow" horiz-adv-x="604" d="M0 7.26l456.732 440.74-456.732 440.74 73.819 71.26 530.423-512-530.423-512-73.819 71.26z" />
<glyph unicode="&#x64;" glyph-name="login" horiz-adv-x="958" d="M958.336 595.644c0 201.196-157.554 364.356-352.744 364.356s-352.744-163.159-352.744-364.356c0-0.096 0-0.209 0-0.322 0-54.903 11.87-107.034 33.183-153.966l-0.951 2.339-285.078-287.881v-109.907c0-1.201 0-2.202 0-3.403-0.008-0.481-0.012-1.048-0.012-1.617 0-57.307 45.952-103.881 103.019-104.886l0.094-0.001h183.179v144.341h140.137v151.148h200.196c186.327 15.277 331.758 170.263 331.758 359.216 0 1.737-0.012 3.471-0.037 5.202l0.003-0.262zM605.591 444.497c-81.14 1.454-146.36 67.572-146.36 148.923 0 0.782 0.006 1.563 0.018 2.342l-0.001-0.118c-0.064 1.615-0.1 3.511-0.1 5.415 0 80.934 65.61 146.543 146.543 146.543s146.543-65.61 146.543-146.543c0-1.905-0.036-3.801-0.108-5.688l0.008 0.272c0.011-0.661 0.017-1.44 0.017-2.221 0-81.421-65.332-147.584-146.434-148.925l-0.126-0.002z" />
<glyph unicode="&#x65;" glyph-name="loupe" horiz-adv-x="1020" d="M1002.603 92.792l-250.291 250.111c37.651 60.448 59.974 133.829 59.974 212.424 0 224.329-181.855 406.184-406.184 406.184s-406.184-181.855-406.184-406.184c0-224.329 181.855-406.184 406.184-406.184 75.651 0 146.471 20.681 207.116 56.699l-1.874-1.031 251.73-251.73c10.636-10.616 25.319-17.181 41.535-17.181s30.899 6.565 41.536 17.182l56.279 56.279c10.777 10.662 17.451 25.454 17.451 41.804 0 16.261-6.601 30.981-17.27 41.625l-0.001 0.001zM135.215 554.176c0 148.957 120.753 269.71 269.71 269.71s269.71-120.753 269.71-269.71c0-148.957-120.753-269.71-269.71-269.71v0c-148.957 0-269.71 120.753-269.71 269.71v0z" />
<glyph unicode="&#x66;" glyph-name="cart" horiz-adv-x="832" d="M768.049 640.061h-127.976c0 176.552-100.274 319.939-223.957 319.939s-224.152-143.387-224.152-319.939h-127.976l-63.988-704.061h832.037zM416.896 848.021c80.375 0 145.533-93.055 145.533-207.96h-292.042c0 114.71 65.158 207.96 145.728 207.96z" />
<glyph unicode="&#x67;" glyph-name="collection" horiz-adv-x="849" d="M631.482 94.487l-207.205 392.826-208.438-392.826zM497.662 676.326l341.333-625.315c6.007-10.77 9.543-23.627 9.543-37.309 0-42.908-34.78-77.693-77.686-77.702h-692.843c-0.467-0.010-1.018-0.016-1.571-0.016-27.683 0-51.903 14.83-65.148 36.98l-0.192 0.346c-6.556 10.989-10.431 24.236-10.431 38.388s3.876 27.399 10.624 38.737l-0.192-0.349 340.1 626.24zM497.354 770.987l109.153 189.013h-364.767l109.153-189.013h146.462z" />
<glyph unicode="&#x68;" glyph-name="heart_full" horiz-adv-x="1145" d="M824.005 960c-103.567-0.431-195.084-51.631-251.006-129.984l-0.64-0.943c-56.638 79.403-148.328 130.635-252 130.928h-0.046c-0.416 0.002-0.909 0.003-1.402 0.003-175.99 0-318.685-142.555-318.911-318.492v-0.022c0-250.244 572.359-705.489 572.359-705.489s572.159 455.044 572.159 705.489c-0.226 175.959-142.921 318.515-318.911 318.515-0.563 0-1.126-0.001-1.689-0.004h0.087z" />
<glyph unicode="&#x69;" glyph-name="heart" horiz-adv-x="1145" d="M824.005 859.902c0.002 0 0.005 0 0.007 0 120.988 0 219.187-97.569 220.207-218.316l0.001-0.097c0-124.922-262.456-398.189-472.261-575.962-209.404 177.573-471.861 450.84-471.861 575.962 1.020 120.844 99.22 218.413 220.208 218.413 0.003 0 0.005 0 0.008 0v0c70.309-0.141 132.437-35.044 170.127-88.431l0.439-0.656 81.279-113.11 81.279 113.11c38.13 54.043 100.257 88.946 170.544 89.087h0.022zM824.005 960c-103.567-0.431-195.084-51.631-251.006-129.984l-0.64-0.943c-56.638 79.403-148.328 130.635-252 130.928h-0.046c-0.416 0.002-0.909 0.003-1.402 0.003-175.99 0-318.685-142.555-318.911-318.492v-0.022c0-250.244 572.359-705.489 572.359-705.489s572.159 455.044 572.159 705.489c-0.226 175.959-142.921 318.515-318.911 318.515-0.563 0-1.126-0.001-1.689-0.004h0.087z" />
<glyph unicode="&#x6a;" glyph-name="heart_levin" horiz-adv-x="1145" d="M826.807 960l-164.16-300.293h180.176l-429.219-586.973c89.688-81.68 158.755-136.934 158.755-136.934s572.159 455.245 572.159 705.689c-0.226 175.536-142.237 317.829-317.645 318.511h-0.065zM347.139 134.794l134.732 283.076h-181.577l266.66 417.808c-56.724 75.531-145.989 123.968-246.584 124.321h-0.057c-0.416 0.002-0.909 0.003-1.402 0.003-175.99 0-318.685-142.555-318.911-318.492v-0.022c0-143.14 186.983-352.945 347.139-506.695z" />
<glyph unicode="&#x6b;" glyph-name="heart_crack_1" horiz-adv-x="1205" d="M867.488 960c-0.237 0.001-0.518 0.001-0.798 0.001-67.468 0-130.25-20.068-182.701-54.56l1.257 0.776-88.606-202.943 154.77-216.872-132.329-186.305 82.609-154.77-86.478-110.467 21.281 106.018-110.274 158.833 112.209 181.275-190.174 197.139 79.707 219.968c-5.224 4.643-10.834 8.706-16.444 13.155-49.396 30.611-109.309 48.753-173.459 48.753-0.231 0-0.463 0-0.694-0.001h0.036c-186.885 0-337.4-142.195-337.4-318.634 0-250.341 602.444-705.366 602.444-705.366s602.251 455.025 602.251 705.366c0 176.438-150.514 318.634-337.206 318.634z" />
<glyph unicode="&#x6c;" glyph-name="heart_crack_2" horiz-adv-x="1347" d="M1073.261 958.061c-10.787 1.205-23.294 1.892-35.961 1.892-76.547 0-147.231-25.097-204.275-67.512l0.915 0.65-104.145-206.158 127.418-231.176-145.455-185.018 56.824-164.655-89.794-125.479 19.394 127.612-142.158 157.673 105.309 192.97-227.103 192.97 70.012 230.594c-67.491 54.497-135.758 82.812-230.012 73.115-191.612-20.17-290.909-202.473-271.903-383.418 25.6-244.17 608.97-599.079 669.091-635.927v0 0 0c19.394 11.442 646.788 385.358 673.358 638.448 19.394 181.139-79.903 363.248-271.515 383.418z" />
<glyph unicode="&#x6d;" glyph-name="heart_crack_3" horiz-adv-x="1753" d="M1458.106 957.812c-12.517 1.437-27.022 2.257-41.718 2.257-86.433 0-166.242-28.363-230.627-76.288l1.028 0.732-116.185-232.588 143.535-262.564-207.644-207.644-45.292-142.003-79.863-53.388-65.641 165.853-138.503 68.485 75.050 195.829-256 195.829 57.326 260.157c-76.362 61.046-153.162 92.991-259.72 82.051-216.178-21.88-328.205-200.424-284.444-410.694 55.138-271.316 864.274-608.055 864.274-608.055v0 0 0s811.104 330.174 869.306 611.337c44.636 215.959-68.704 387.938-284.882 410.694z" />
<glyph unicode="&#x6e;" glyph-name="eye" horiz-adv-x="1890" d="M1729.335 448.821c-182.44-233.617-464.131-382.405-780.573-382.405-1.268 0-2.536 0.002-3.803 0.007l0.196-0.001c-0.974-0.003-2.126-0.005-3.279-0.005-316.442 0-598.132 148.787-778.929 380.22l-1.643 2.184c183.753 233.747 466.513 382.495 784.015 382.495s600.262-148.748 782.395-380.357l1.621-2.138zM1890.638 448.821c-204.572 310.004-551.333 511.741-945.212 511.741-394.018 0-740.884-201.879-942.807-507.844l-2.62-4.225c202.613-310.296 548.226-512.5 941.067-512.5 1.437 0 2.873 0.003 4.308 0.008l-0.22-0.001c1.267-0.005 2.766-0.008 4.266-0.008 392.788 0 738.347 202.21 938.258 508.209l2.631 4.292zM945.155 676.158c125.917 0 227.994-102.076 227.994-227.994s-102.076-227.994-227.994-227.994c-125.917 0-227.994 102.076-227.994 227.994v0c1.105 125.47 102.523 226.888 227.888 227.993l0.106 0.001zM945.155 782.599c-184.318-0.747-333.449-150.338-333.449-334.76 0-184.884 149.878-334.763 334.763-334.763s334.763 149.878 334.763 334.763c0 0.114 0 0.229 0 0.343v-0.017c-0.186 184.744-149.993 334.437-334.763 334.437-0.462 0-0.924-0.001-1.386-0.003h0.072z" />
<glyph unicode="&#x6f;" glyph-name="star" horiz-adv-x="1078" d="M538.989 811.709l97.081-222.239 13.643-31.438 34.008-3.757 253.084-29.263-218.878-189.417 8.107-34.799 56.351-242.011-243.395 147.303-30.647-18.388-212.946-128.321 64.457 276.81-27.088 23.331-191.79 165.493 287.092 32.426 13.643 31.438 97.279 222.832zM538.989 960l-151.455-346.606-387.534-43.696 294.012-254.863-88.184-378.835 333.161 200.885 332.963-200.885-88.184 378.835 294.012 254.863-387.534 43.696-151.257 346.606z" />
<glyph unicode="&#x70;" glyph-name="star_full" horiz-adv-x="1078" d="M538.989 136.885l332.963-200.885-88.184 378.835 294.012 254.863-387.534 43.696-151.257 346.606-151.455-346.606-387.534-43.696 294.012-254.863-88.184-378.835z" />
<glyph unicode="&#x71;" glyph-name="check_frame" horiz-adv-x="1141" d="M490.451 118.173l-308.876 421.612 69.437 64.249 236.047-159.626c3.991 4.19 7.782 7.782 11.174 11.772 142.586 178.995 304.217 333.909 484.187 465.188l7.062 4.91c24.665 20.684 56.748 33.248 91.766 33.248 5.066 0 10.071-0.263 15.002-0.776l-0.617 0.052c6.86-0.447 14.873-0.701 22.946-0.701s16.086 0.255 24.033 0.756l-1.086-0.055c-271.164-245.225-463.115-542.728-651.074-840.63zM903.882 514.843v-518.784h-844.022v844.221h632.518c22.747 19.953 45.892 39.906 69.238 59.86h-761.615v-964.14h964.14v656.461c-20.751-25.74-40.505-51.479-60.259-77.618z" />
<glyph unicode="&#x72;" glyph-name="check" horiz-adv-x="1168" d="M375.717-64l-375.717 512.849 84.464 78.153 287.128-194.169c4.854 5.097 9.466 9.466 13.592 14.32 173.442 217.729 370.050 406.167 588.966 565.856l8.59 5.973c30.002 25.16 69.029 40.443 111.625 40.443 6.163 0 12.251-0.32 18.248-0.944l-0.75 0.063c8.345-0.543 18.092-0.853 27.912-0.853s19.567 0.31 29.233 0.92l-1.321-0.067c-329.845-298.292-562.848-660.175-791.968-1022.544z" />
<glyph unicode="&#x73;" glyph-name="circle" d="M1016.809 465.059l-69.46 69.46 37.637 90.726c1.147 2.725 1.813 5.892 1.813 9.215 0 10.059-6.105 18.691-14.811 22.395l-0.159 0.060-90.726 37.637v98.223c0 13.435-10.891 24.326-24.326 24.326v0h-98.223l-37.484 90.879c-3.764 8.866-12.397 14.97-22.455 14.97-3.323 0-6.49-0.666-9.375-1.872l0.161 0.060-90.879-37.637-69.46 69.46c-4.396 4.363-10.451 7.059-17.136 7.059s-12.74-2.696-17.137-7.061l-69.459-69.459-90.726 37.484c-2.725 1.147-5.892 1.813-9.215 1.813-10.059 0-18.691-6.105-22.395-14.811l-0.060-0.159-37.637-90.726h-98.223c-13.435 0-24.326-10.891-24.326-24.326v0-98.223l-90.726-37.484c-8.866-3.764-14.97-12.397-14.97-22.455 0-3.323 0.666-6.49 1.872-9.375l-0.060 0.161 37.637-90.879-69.46-69.46c-4.363-4.396-7.059-10.451-7.059-17.136s2.696-12.74 7.061-17.137l69.459-69.459-37.484-90.726c-1.147-2.725-1.813-5.892-1.813-9.215 0-10.059 6.105-18.691 14.811-22.395l0.159-0.060 90.726-37.637v-98.070c0-13.435 10.891-24.326 24.326-24.326v0h98.223l37.637-90.726c3.764-8.866 12.397-14.97 22.455-14.97 3.323 0 6.49 0.666 9.375 1.872l-0.161-0.060 90.726 37.637 69.46-69.46c4.396-4.363 10.451-7.059 17.136-7.059s12.74 2.696 17.137 7.061l69.459 69.459 90.726-37.637c2.725-1.147 5.892-1.813 9.215-1.813 10.059 0 18.691 6.105 22.395 14.811l0.060 0.159 37.637 90.726h98.070c13.435 0 24.326 10.891 24.326 24.326v98.070l90.726 37.637c8.866 3.764 14.97 12.397 14.97 22.455 0 3.323-0.666 6.49-1.872 9.375l0.060-0.161-37.637 90.726 69.46 69.46c4.363 4.396 7.059 10.451 7.059 17.136s-2.696 12.74-7.061 17.137l0.001-0.001z" />
<glyph unicode="&#x74;" glyph-name="close_thin" horiz-adv-x="1090" d="M1089.915 917.957l-39.193 42.043-505.765-472.629-505.587 472.629-39.371-42.043 502.914-469.957-502.914-469.957 39.371-42.043 505.587 472.629 505.765-472.629 39.193 42.043-502.736 469.957 502.736 469.957z" />
<glyph unicode="&#x75;" glyph-name="close" horiz-adv-x="1016" d="M1015.577 852.326l-94.856 107.674-412.933-411.102-413.116 411.102-94.672-107.857 406.34-404.143-406.34-404.143 94.672-107.857 413.116 411.102 412.933-410.918 94.856 107.674-406.34 404.143 406.34 404.326z" />
<glyph unicode="&#x76;" glyph-name="gender_female" horiz-adv-x="683" d="M682.667 618.667c-0.072 188.459-152.865 341.207-341.333 341.207-188.513 0-341.333-152.82-341.333-341.333 0-164.314 116.104-301.511 270.749-334.027l2.224-0.391v-75.15h-136.487v-136.487h136.487v-136.487h136.721v136.487h136.487v136.487h-136.487v75.15c156.863 32.999 272.941 170.211 272.973 334.541v0.003zM341.333 413.82c-113.134 0-204.847 91.713-204.847 204.847s91.713 204.847 204.847 204.847c113.134 0 204.847-91.713 204.847-204.847v0c-0.133-113.080-91.767-204.714-204.834-204.847h-0.013z" />
<glyph unicode="&#x77;" glyph-name="gender_male" d="M551.302 960l157.476-157.476-126.683-126.683c-54.408 30.199-119.316 47.974-188.375 47.974-217.504 0-393.825-176.322-393.825-393.825s176.322-393.825 393.825-393.825c217.504 0 393.825 176.322 393.825 393.825 0 69.059-17.775 133.967-49 190.398l1.026-2.022 126.683 126.683 157.476-157.476v472.428zM393.825 93.476c-130.532 0-236.349 105.817-236.349 236.349s105.817 236.349 236.349 236.349c130.532 0 236.349-105.817 236.349-236.349v0c-0.154-130.47-105.879-236.196-236.335-236.349h-0.014z" />
<glyph unicode="&#x78;" glyph-name="gender_unisex" horiz-adv-x="740" d="M398.168 960l113.734-113.734-91.495-91.495c-39.143 21.603-85.804 34.314-135.435 34.314-157.088 0-284.434-127.345-284.434-284.434 0-136.73 96.477-250.927 225.070-278.23l1.86-0.331v-62.622h-113.734v-113.734h113.734v-113.734h113.93v113.734h113.734v113.734h-113.734v62.622c130.741 27.494 227.487 141.866 227.487 278.834 0 49.82-12.8 96.65-35.29 137.382l0.742-1.466 91.495 91.495 113.734-113.734v341.398zM284.434 334.168c-94.275 0-170.699 76.425-170.699 170.699s76.425 170.699 170.699 170.699c94.275 0 170.699-76.425 170.699-170.699v0c-0.111-94.23-76.469-170.588-170.689-170.699h-0.010z" />
<glyph unicode="&#x79;" glyph-name="gift" horiz-adv-x="779" d="M420.929 381.966h326.729v-446.122h-326.729v446.122zM420.929 601.976h358.024v-194.817h-358.024v194.817zM772.694 658.465c-31.296 12.518-43.971 18.778-43.971 18.778v50.386c-75.423-100.46-282.758-106.875-282.758-106.875s258.191 56.489 258.191 175.883c0 87.941-93.888 113.134-93.888 113.134s-25.976 50.23-69.946 50.23c-93.888 0-150.846-263.824-150.846-263.824s-56.489 263.824-150.689 263.824c-43.971 0-69.164-50.23-69.164-50.23s-93.888-25.193-93.888-113.134c0-119.394 257.565-175.883 257.565-175.883s-208.117 6.259-283.071 106.875v-50.23s-12.518-6.259-43.971-18.778c62.592-75.423 383.218-43.971 383.218-43.971s320.469-31.609 383.218 43.814zM156.479 834.817c0 25.193 43.971 25.193 43.971 25.193s19.403 37.399 44.597 37.399c31.296 0 75.423-169.623 113.134-251.306-12.675-0.156-201.702 131.756-201.702 188.714zM534.064 897.408c25.193 0 43.971-37.711 43.971-37.711s43.971 0 43.971-25.193c0-56.489-187.775-187.775-201.076-187.775 37.711 80.9 81.682 250.68 113.134 250.68zM31.452 381.966h326.729v-446.122h-326.729v446.122zM0 601.976h358.024v-194.817h-358.024v194.817z" />
<glyph unicode="&#x7a;" glyph-name="question" d="M511.904 895.916c0.057 0 0.124 0 0.192 0 247.43 0 448.012-200.582 448.012-448.012s-200.582-448.012-448.012-448.012c-247.43 0-448.012 200.582-448.012 448.012 0 0.068 0 0.135 0 0.203v-0.011c0.436 247.148 200.671 447.384 447.778 447.82h0.042zM511.904 960c-282.634-0.109-511.712-229.255-511.712-511.904 0-282.717 229.187-511.904 511.904-511.904s511.904 229.187 511.904 511.904v0c0 282.717-229.187 511.904-511.904 511.904-0.068 0-0.135 0-0.203 0h0.011zM655.23 576.264c0.013-0.726 0.021-1.581 0.021-2.439 0-20.503-4.387-39.981-12.274-57.546l0.357 0.89c-8.111-17.69-18.54-32.847-31.13-45.906l0.048 0.050c-13.078-13.189-27.383-25.119-42.744-35.617l-1.002-0.646q-24.751-17.076-52.572-32.809v-76.747h-60.63v103.993l47.583 27.437c15.856 8.979 29.562 18.956 42.012 30.289l-0.184-0.165c12.072 10.357 22.325 22.381 30.519 35.799l0.372 0.656c6.927 12.931 10.996 28.288 10.996 44.596 0 1.185-0.021 2.366-0.064 3.541l0.005-0.17c0.125 1.521 0.196 3.293 0.196 5.082 0 21.357-10.173 40.338-25.938 52.361l-0.16 0.117c-17.55 12.066-39.258 19.27-62.65 19.27-1.517 0-3.026-0.030-4.528-0.090l0.216 0.007c-0.332 0.002-0.724 0.003-1.117 0.003-24.414 0-47.842-4.218-69.597-11.965l1.449 0.45c-19.87-6.624-36.995-14.544-53.040-24.089l1.236 0.681h-3.454v68.497c16.86 6.43 37.074 12.14 57.9 16.127l2.346 0.374c20.854 4.453 44.835 7.035 69.408 7.099h0.049c2.952 0.18 6.402 0.283 9.876 0.283 39.792 0 76.44-13.459 105.64-36.073l-0.396 0.295c25.36-21.263 41.371-52.96 41.371-88.395 0-1.842-0.043-3.673-0.129-5.494l0.010 0.258zM520.922 190.225h-69.073v71.951h69.073z" />
</font>
</defs>
</svg>
