<svg version="1" xmlns="http://www.w3.org/2000/svg" width="346.667" height="346.667" viewBox="0 0 260.000000 260.000000"><path d="M84 .7c0 .5 2.3 4.6 5 9.2 2.8 4.6 5 8.5 5 8.6 0 .4 16.2 28 16.9 28.8 1 1 37.2 1.1 38.1 0 .9-1.1 27-46.3 27-46.9 0-.2-20.7-.4-46-.4S84 .3 84 .7zM110 74c-.9 1.4-3.6 6.1-6 10.5-3.7 6.9-8.3 15.4-25 46-1.8 3.3-6.8 12.4-11.1 20.3-4.4 7.8-7.9 14.4-7.9 14.7 0 .2-1.5 3-3.4 6.2-1.8 3.2-4.9 8.7-6.8 12.3-3.8 7.1-20.6 37.9-24.5 44.8-4.7 8.7-4 17 2 23.9 6.8 7.7.3 7.3 102.5 7.3 99.8 0 95.1.3 101.5-5.8 4-3.7 5.7-7.4 6.1-12.9.5-5.5-.4-8.3-5.9-18.2-2.3-4.2-5.8-10.5-7.7-14.1-2-3.6-4.7-8.5-6-11-3-5.3-13.2-24-17.8-32.5-1.8-3.3-4.3-7.8-5.5-10-2.5-4.6-6.6-12.1-11.8-21.5-17.3-32.1-33.1-60.7-33.8-61.5-.6-.5-8.6-1-19-1h-18.1L110 74zm21.5 49.3c1.4 2.8 14.9 28.6 18.5 35.2 1.5 2.7 5.6 10.4 9 17 3.4 6.6 7.9 15.1 10 19 2.1 3.8 5.8 10.9 8.4 15.7l4.6 8.8H77.9l7.2-13.8c3.9-7.5 8.2-15.5 9.4-17.7 1.2-2.2 5.4-10.1 9.3-17.5 3.9-7.4 9.8-18.7 13.2-25 3.3-6.3 7.5-14.3 9.3-17.8 1.7-3.4 3.4-6.2 3.7-6.2.3 0 1 1 1.5 2.3z"/></svg>